<svg width="1000" height="243" viewBox="0 0 1000 243" fill="none" xmlns="http://www.w3.org/2000/svg">
<g clip-path="url(#clip0_1_3)">
<path d="M578.023 60.262C579.209 60.1571 580.575 60.1479 581.79 60.1323C616.286 59.6785 650.971 59.2222 685.169 64.4741C692.851 65.6539 699.762 68.364 706.229 72.3959C716.199 78.611 719.416 88.2549 721.91 99.1884C722.744 102.657 724.55 121.635 722.861 124.205C719.596 124.798 708.84 124.497 704.911 124.492L668.053 124.441C668.292 119.827 667.741 117.126 666.848 112.673C664.944 110.843 661.426 107.818 658.736 107.298C640.825 103.837 621.557 106.215 603.299 105.098C601.093 104.963 590.116 105.229 587.574 105.326C575.656 105.779 556.387 103.714 547.202 112.241C540.98 118.012 540.448 132.408 540.799 141.176C541.385 155.638 538.002 181.441 547.334 193.159C548.7 194.617 552.79 197.217 554.743 197.347C566.817 198.152 581.005 198.92 593.001 199.079C609.902 199.302 626.623 199.348 643.436 198.456C651.162 198.046 660.235 199.27 666.194 193.351C669.888 189.542 669.181 180.766 669.127 175.666L597.881 175.588V149.27C597.886 145.967 597.803 142.58 597.764 139.269C639.332 138.728 682.051 139.195 723.711 139.174C722.544 151.835 724.12 165.505 722.974 178.838C721.646 194.306 723.374 211.3 712.061 224.193C708.361 228.409 702.881 232.288 697.736 234.615C685.931 238.836 666.726 240.739 654.285 241.374C626.725 242.583 599.131 242.819 571.551 242.082C554.147 241.568 534.635 241.673 517.846 236.571C511.072 234.512 504.024 230.147 498.832 225.388C488.548 215.963 487.79 198.01 486.53 185.115C486.093 180.651 485.335 176.173 485.133 171.692C484.147 149.89 484.114 93.6228 498.597 77.9562C502.599 73.6212 509.842 69.276 515.406 67.3188C530.955 61.8464 561.107 61.0184 578.023 60.262Z" fill="white"/>
<path d="M273.264 62.9707C280.99 62.613 290.554 62.8614 298.448 62.8648L343.865 62.8672L471.458 62.9297C471.677 76.748 471.48 91.085 471.479 104.945C461.068 104.281 443.48 104.854 432.635 104.85L355.472 104.831C350.18 104.835 331.156 105.907 327.999 105.118L327.978 130.269C332.542 129.906 339.404 130.09 344.112 130.086L372.907 130.086C403.456 130.184 434.004 130.124 464.552 129.908C464.079 142.069 464.459 156.902 464.542 169.234C441.043 169.685 416.238 169.289 392.637 169.29C372.334 169.309 347.831 168.541 327.962 169.386L328.048 196.708C361.741 197.225 396.555 196.805 430.328 196.779L456.22 196.763C460.719 196.762 468.474 196.538 472.601 197.251C473.599 198.877 473.2 234.365 473.06 239.184L335.696 239.179C314.843 239.18 292.78 239.537 272.003 239.034C271.735 228.83 272.044 217.534 272.053 207.199L272.057 143.024L272.039 93.8634C272.035 87.4849 271.225 67.8961 273.264 62.9707Z" fill="white"/>
<path d="M820.096 62.9409C823.966 62.8277 827.929 62.8336 831.804 62.8697C856.411 63.1005 881.161 62.471 905.753 62.956C907.71 67.231 911.732 73.3118 914.153 77.8068L933.787 114.759L988.014 216.705C989.957 220.311 997.263 236.018 999.527 238.202V238.779C996.37 239.93 943.304 239.176 935.871 239.099L921.991 209.915C918.174 209.342 910.868 209.508 906.856 209.503L881.712 209.495C856.48 209.49 831.004 208.993 805.849 210.076C805.361 210.097 803.795 210.485 803.56 210.909C798.714 219.752 793.072 230.123 789.007 239.106C768.626 239.503 745.16 239.471 724.794 239.029C733.179 226.872 738.796 213.65 745.766 200.883C752.891 187.842 760.7 175.288 766.586 161.48C767.596 159.113 769.856 158.074 770.661 156.191C776.386 142.828 784.029 130.629 790.91 118.009L810.388 81.5187C813.731 75.3544 816.679 69.0808 820.096 62.9409ZM823.058 170.784C837.953 170.42 853.542 170.639 868.486 170.644C879.794 170.632 891.273 170.717 902.566 170.573C900.863 166.434 897.51 163.317 895.987 159.759C890.57 147.099 883.991 135.297 877.3 123.297C873.976 117.25 871.351 110.524 868.091 104.454L857.983 104.457C855.718 109.84 852.043 114.807 849.081 120.683L831.345 155.032C828.563 160.313 826.113 165.651 823.058 170.784Z" fill="white"/>
<path d="M0 62.9448L60.2005 62.7979C65.837 71.2693 73.128 89.1166 78.11 98.9625L126.163 194.574L135.699 194.821C140.221 184.752 144.223 176.22 149.525 166.53C154.891 156.72 158.719 145.051 164.443 135.289C170.304 125.251 174.527 114.312 179.557 103.89C181.836 99.1674 184.886 93.5828 187.438 88.8414C191.634 81.0425 195.27 70.3129 199.535 62.9233C218.23 62.694 242.202 62.2544 260.627 62.9609C257.413 68.2581 255.564 74.3883 252.615 79.543C246.055 90.8313 240.744 102.678 235.291 114.526C233.429 118.57 230.29 122.623 228.625 126.513C222.848 140.006 215.445 152.845 209.073 165.924L188.956 206.601C183.003 218.77 179.362 227.276 172.558 239.122L119.577 239.184C109.416 239.179 97.8649 239.426 87.831 239.087L29.1331 122.681L10.5685 85.193C8.98525 81.9183 1.36934 64.9688 0 63.5499V62.9448Z" fill="white"/>
<path d="M761.447 1.94532C764.57 28.8393 803.438 31.99 824.195 32.5932C827.05 32.6762 836.109 32.7496 838.334 33.4424C834.83 34.0485 830.276 34.0781 826.621 34.32C810.344 35.3972 794.331 35.9203 779.514 43.6678C769.382 48.9621 762.393 53.7128 761.388 65.9467C752.349 33.2917 709.157 35.5933 682.285 35.6332L637.916 35.6528L493.019 35.6443L0 35.6225V31.6686L492.672 31.6279L642.006 31.6298L688.195 31.6541C703.095 31.682 714.74 32.4489 729.274 28.5264C746.141 23.9723 756.342 19.2351 761.447 1.94532Z" fill="white"/>
</g>
<defs>
<clipPath id="clip0_1_3">
<rect width="999.527" height="243" fill="white"/>
</clipPath>
</defs>
</svg>
